<?xml version="1.0" standalone="no"?><!DOCTYPE svg PUBLIC "-//W3C//DTD SVG 1.1//EN" "http://www.w3.org/Graphics/SVG/1.1/DTD/svg11.dtd"><svg t="1734939653452" class="icon" viewBox="0 0 1024 1024" version="1.1" xmlns="http://www.w3.org/2000/svg" p-id="5158" xmlns:xlink="http://www.w3.org/1999/xlink" width="60" height="60"><path d="M880.3 209.9h-88.8l-12.5-31c-7.5-18.6-31.4-32.2-54.1-32.2H574.2c-22.7 0-46.6 13.6-54.1 32.2l-12.5 31H119.4c-20.7 0-37.4 16.8-37.4 37.4v419.5c0 20.7 16.8 37.4 37.4 37.4h760.9c20.7 0 37.4-16.8 37.4-37.4V247.3c0-20.7-16.7-37.4-37.4-37.4z" fill="#EEB860" p-id="5159"></path><path d="M825.2 593.5H177.6c-27 0-48.8-21.9-48.8-48.8v-234c0-27 21.9-48.8 48.8-48.8h647.7c27 0 48.8 21.9 48.8 48.8v233.9c0 27-21.9 48.9-48.9 48.9z" fill="#507ACE" p-id="5160"></path><path d="M825.2 593.5H177.6c-27 0-48.8-21.9-48.8-48.8V363.2c0-27 21.9-48.8 48.8-48.8h647.7c27 0 48.8 21.9 48.8 48.8v181.4c0 27-21.9 48.9-48.9 48.9z" fill="#5B88EE" p-id="5161"></path><path d="M365.4 403.4h-159c-8.4 0-15.2-6.8-15.2-15.2 0-8.4 6.8-15.2 15.2-15.2h159.1c8.4 0 15.2 6.8 15.2 15.2-0.1 8.3-6.9 15.2-15.3 15.2z m0 75.4h-159c-8.4 0-15.2-6.8-15.2-15.2 0-8.4 6.8-15.2 15.2-15.2h159.1c8.4 0 15.2 6.8 15.2 15.2-0.1 8.4-6.9 15.2-15.3 15.2z m0 75.5h-159c-8.4 0-15.2-6.8-15.2-15.2 0-8.4 6.8-15.2 15.2-15.2h159.1c8.4 0 15.2 6.8 15.2 15.2-0.1 8.4-6.9 15.2-15.3 15.2z" fill="#FFFFFF" p-id="5162"></path><path d="M871 877.3H119.4c-20.7 0-40.2-13.5-43.7-30.5L22.8 592.2c-4.8-23.1 12.7-44.9 36.3-45.1l367.5-4.3 107.6-158.3h430.1c23.9 0 41.8 22 36.9 45.4l-86.5 416.9c-3.5 16.9-23.1 30.5-43.7 30.5z" fill="#F6C94E" p-id="5163"></path></svg>